REM DIRINDEX 1\2,1\3,1\4,1\5,1\6
REM DIRNAME folder01,folder02,folder03,folder04,folder05,folder06
TITLE ""
FILE "CD1-36.mp3" MP3
  TRACK 01 AUDIO
    TITLE "6:cjc091_0730"
    INDEX 01 00:00:00
  TRACK 02 AUDIO
    TITLE "0:"
    INDEX 01 00:02:08
  TRACK 03 AUDIO
    TITLE "2:cjc091_0731"
    INDEX 01 00:03:35
  TRACK 04 AUDIO
    TITLE "0:"
    INDEX 01 00:04:68
  TRACK 05 AUDIO
    TITLE "3:cjc091_0732"
    INDEX 01 00:05:14
  TRACK 06 AUDIO
    TITLE "0:"
    INDEX 01 00:06:63
  TRACK 07 AUDIO
    TITLE "4:cjc091_0733"
    INDEX 01 00:07:07
  TRACK 08 AUDIO
    TITLE "0:"
    INDEX 01 00:10:14
  TRACK 09 AUDIO
    TITLE "2:cjc091_0734"
    INDEX 01 00:11:23
  TRACK 10 AUDIO
    TITLE "0:"
    INDEX 01 00:12:34
  TRACK 11 AUDIO
    TITLE "3:cjc091_0735"
    INDEX 01 00:12:44
  TRACK 12 AUDIO
    TITLE "0:"
    INDEX 01 00:14:00
  TRACK 13 AUDIO
    TITLE "4:cjc091_0736"
    INDEX 01 00:14:21
  TRACK 14 AUDIO
    TITLE "0:"
    INDEX 01 00:16:67
  TRACK 15 AUDIO
    TITLE "2:cjc091_0737"
    INDEX 01 00:18:09
  TRACK 16 AUDIO
    TITLE "0:"
    INDEX 01 00:19:44
  TRACK 17 AUDIO
    TITLE "3:cjc091_0738"
    INDEX 01 00:19:60
  TRACK 18 AUDIO
    TITLE "0:"
    INDEX 01 00:21:45
  TRACK 19 AUDIO
    TITLE "4:cjc091_0739"
    INDEX 01 00:21:58
  TRACK 20 AUDIO
    TITLE "0:"
    INDEX 01 00:26:11
  TRACK 21 AUDIO
    TITLE "2:cjc091_0740"
    INDEX 01 00:27:30
  TRACK 22 AUDIO
    TITLE "0:"
    INDEX 01 00:28:27
  TRACK 23 AUDIO
    TITLE "3:cjc091_0741"
    INDEX 01 00:28:55
  TRACK 24 AUDIO
    TITLE "0:"
    INDEX 01 00:30:50
  TRACK 25 AUDIO
    TITLE "4:cjc091_0742"
    INDEX 01 00:30:69
  TRACK 26 AUDIO
    TITLE "0:"
    INDEX 01 00:32:60
  TRACK 27 AUDIO
    TITLE "2:cjc091_0743"
    INDEX 01 00:33:73
  TRACK 28 AUDIO
    TITLE "0:"
    INDEX 01 00:35:35
  TRACK 29 AUDIO
    TITLE "3:cjc091_0744"
    INDEX 01 00:35:37
  TRACK 30 AUDIO
    TITLE "0:"
    INDEX 01 00:36:68
  TRACK 31 AUDIO
    TITLE "4:cjc091_0745"
    INDEX 01 00:37:20
  TRACK 32 AUDIO
    TITLE "0:"
    INDEX 01 00:41:26
  TRACK 33 AUDIO
    TITLE "2:cjc091_0746"
    INDEX 01 00:42:45
  TRACK 34 AUDIO
    TITLE "0:"
    INDEX 01 00:43:58
  TRACK 35 AUDIO
    TITLE "3:cjc091_0747"
    INDEX 01 00:43:64
  TRACK 36 AUDIO
    TITLE "0:"
    INDEX 01 00:45:08
  TRACK 37 AUDIO
    TITLE "4:cjc091_0748"
    INDEX 01 00:45:30
  TRACK 38 AUDIO
    TITLE "0:"
    INDEX 01 00:48:51
  TRACK 39 AUDIO
    TITLE "2:cjc091_0749"
    INDEX 01 00:49:67
  TRACK 40 AUDIO
    TITLE "0:"
    INDEX 01 00:51:15
  TRACK 41 AUDIO
    TITLE "3:cjc091_0750"
    INDEX 01 00:51:34
  TRACK 42 AUDIO
    TITLE "0:"
    INDEX 01 00:53:06
  TRACK 43 AUDIO
    TITLE "4:cjc091_0751"
    INDEX 01 00:53:33
  TRACK 44 AUDIO
    TITLE "0:"
    INDEX 01 00:57:27
  TRACK 45 AUDIO
    TITLE "2:cjc091_0752"
    INDEX 01 00:58:44
  TRACK 46 AUDIO
    TITLE "0:"
    INDEX 01 01:00:39
  TRACK 47 AUDIO
    TITLE "3:cjc091_0753"
    INDEX 01 01:00:55
  TRACK 48 AUDIO
    TITLE "0:"
    INDEX 01 01:02:36
  TRACK 49 AUDIO
    TITLE "4:cjc091_0754"
    INDEX 01 01:02:59
  TRACK 50 AUDIO
    TITLE "0:"
    INDEX 01 01:06:61
  TRACK 51 AUDIO
    TITLE "2:cjc091_0755"
    INDEX 01 01:07:70
  TRACK 52 AUDIO
    TITLE "0:"
    INDEX 01 01:09:24
  TRACK 53 AUDIO
    TITLE "3:cjc091_0756"
    INDEX 01 01:09:48
  TRACK 54 AUDIO
    TITLE "0:"
    INDEX 01 01:11:27
  TRACK 55 AUDIO
    TITLE "4:cjc091_0757"
    INDEX 01 01:11:43
  TRACK 56 AUDIO
    TITLE "0:"
    INDEX 01 01:14:66
  TRACK 57 AUDIO
    TITLE "2:cjc091_0758"
    INDEX 01 01:16:03
  TRACK 58 AUDIO
    TITLE "0:"
    INDEX 01 01:17:39
  TRACK 59 AUDIO
    TITLE "3:cjc091_0759"
    INDEX 01 01:17:57
  TRACK 60 AUDIO
    TITLE "0:"
    INDEX 01 01:19:64
  TRACK 61 AUDIO
    TITLE "4:cjc091_0760"
    INDEX 01 01:20:06
  TRACK 62 AUDIO
    TITLE "0:"
    INDEX 01 01:22:27
  TRACK 63 AUDIO
    TITLE "2:cjc091_0761"
    INDEX 01 01:23:36
  TRACK 64 AUDIO
    TITLE "0:"
    INDEX 01 01:24:67
  TRACK 65 AUDIO
    TITLE "3:cjc091_0762"
    INDEX 01 01:25:09
  TRACK 66 AUDIO
    TITLE "0:"
    INDEX 01 01:26:72
  TRACK 67 AUDIO
    TITLE "4:cjc091_0763"
    INDEX 01 01:27:26
  TRACK 68 AUDIO
    TITLE "0:"
    INDEX 01 01:30:73
  TRACK 69 AUDIO
    TITLE "2:cjc091_0764"
    INDEX 01 01:32:13
  TRACK 70 AUDIO
    TITLE "0:"
    INDEX 01 01:33:62
  TRACK 71 AUDIO
    TITLE "3:cjc091_0765"
    INDEX 01 01:34:08
  TRACK 72 AUDIO
    TITLE "0:"
    INDEX 01 01:35:59
  TRACK 73 AUDIO
    TITLE "4:cjc091_0766"
    INDEX 01 01:36:13
  TRACK 74 AUDIO
    TITLE "0:"
    INDEX 01 01:41:05
  TRACK 75 AUDIO
    TITLE "2:cjc091_0767"
    INDEX 01 01:42:18
  TRACK 76 AUDIO
    TITLE "0:"
    INDEX 01 01:43:13
  TRACK 77 AUDIO
    TITLE "3:cjc091_0768"
    INDEX 01 01:43:41
  TRACK 78 AUDIO
    TITLE "0:"
    INDEX 01 01:45:12
  TRACK 79 AUDIO
    TITLE "4:cjc091_0769"
    INDEX 01 01:45:30
  TRACK 80 AUDIO
    TITLE "0:"
    INDEX 01 01:47:72
  TRACK 81 AUDIO
    TITLE "2:cjc091_0770"
    INDEX 01 01:49:14
  TRACK 82 AUDIO
    TITLE "0:"
    INDEX 01 01:50:58
  TRACK 83 AUDIO
    TITLE "3:cjc091_0771"
    INDEX 01 01:50:66
  TRACK 84 AUDIO
    TITLE "0:"
    INDEX 01 01:52:34
  TRACK 85 AUDIO
    TITLE "4:cjc091_0772"
    INDEX 01 01:52:53
  TRACK 86 AUDIO
    TITLE "0:"
    INDEX 01 01:55:01
  TRACK 87 AUDIO
    TITLE "2:cjc091_0773"
    INDEX 01 01:56:14
  TRACK 88 AUDIO
    TITLE "0:"
    INDEX 01 01:57:57
  TRACK 89 AUDIO
    TITLE "3:cjc091_0774"
    INDEX 01 01:57:66
  TRACK 90 AUDIO
    TITLE "0:"
    INDEX 01 01:59:73
  TRACK 91 AUDIO
    TITLE "4:cjc091_0775"
    INDEX 01 02:00:16
  TRACK 92 AUDIO
    TITLE "0:"
    INDEX 01 02:03:65
